<?xml version="1.0" encoding="iso-8859-1"?>
<!-- Generator: Adobe Illustrator 17.1.0, SVG Export Plug-In . SVG Version: 6.00 Build 0)  -->
<!DOCTYPE svg PUBLIC "-//W3C//DTD SVG 1.1//EN" "http://www.w3.org/Graphics/SVG/1.1/DTD/svg11.dtd">
<svg version="1.1" id="Capa_1" xmlns="http://www.w3.org/2000/svg" xmlns:xlink="http://www.w3.org/1999/xlink" x="0px" y="0px"
	 viewBox="0 0 250.68 250.68" style="enable-background:new 0 0 250.68 250.68;" xml:space="preserve">
<g>
	<path style="fill:#000002;" d="M82.966,141.65c-11.384,0-20.645,9.262-20.645,20.645c0,11.383,9.262,20.645,20.645,20.645
		c11.383,0,20.645-9.261,20.645-20.645C103.61,150.912,94.349,141.65,82.966,141.65z M82.966,172.941
		c-5.87,0-10.646-4.775-10.646-10.645c0-5.87,4.775-10.645,10.646-10.645c5.87,0,10.645,4.775,10.645,10.645
		C93.61,168.166,88.836,172.941,82.966,172.941z"/>
	<path style="fill:#000002;" d="M88.447,91.232c1.586,0,3.225-0.524,4.737-1.514l24.627-16.127c2.533-1.659,3.986-4.182,3.986-6.922
		c-0.001-2.74-1.453-5.263-3.987-6.922L93.184,43.624c-1.513-0.99-3.15-1.514-4.736-1.514c-3.571,0-7.186,2.733-7.186,7.958v33.206
		C81.262,88.499,84.877,91.232,88.447,91.232z M91.263,54.319l18.864,12.351L91.262,79.022L91.263,54.319z"/>
	<path style="fill:#000002;" d="M61.126,90.6c2.761,0,5-2.239,5-5V47.745c0-2.761-2.239-5-5-5s-5,2.239-5,5V85.6
		C56.126,88.361,58.365,90.6,61.126,90.6z"/>
	<path style="fill:#000002;" d="M240.875,62.635c0-8.791-7.152-15.942-15.942-15.942c-8.791,0-15.942,7.152-15.942,15.942
		c0,7.043,4.596,13.024,10.942,15.127v77.298c0,25.902-11.988,39.132-36.596,40.359v-72.501c6.347-2.104,10.942-8.085,10.942-15.128
		c0-8.79-7.152-15.942-15.942-15.942c-8.791,0-15.942,7.152-15.942,15.942c0,7.043,4.596,13.024,10.942,15.128v77.298
		c0,27.228-13.235,40.463-40.463,40.463c-26.437,0-39.68-12.481-40.426-38.131h41.179c12.407,0,22.5-10.093,22.5-22.5V22.5
		c0-12.407-10.093-22.5-22.5-22.5H32.305c-12.407,0-22.5,10.093-22.5,22.5v157.549c0,12.407,10.093,22.5,22.5,22.5h50.147
		c0.813,31.497,18.199,48.131,50.423,48.131c31.224,0,48.516-15.618,50.299-45.241c30.608-1.278,46.759-18.624,46.759-50.378V77.762
		C236.279,75.659,240.875,69.678,240.875,62.635z M32.305,15h101.322c4.135,0,7.5,3.364,7.5,7.5v98.687H24.805V22.5
		C24.805,18.364,28.17,15,32.305,15z M24.805,180.049v-43.862h116.322v43.862c0,4.136-3.365,7.5-7.5,7.5H32.305
		C28.17,187.549,24.805,184.185,24.805,180.049z"/>
</g>
<g>
</g>
<g>
</g>
<g>
</g>
<g>
</g>
<g>
</g>
<g>
</g>
<g>
</g>
<g>
</g>
<g>
</g>
<g>
</g>
<g>
</g>
<g>
</g>
<g>
</g>
<g>
</g>
<g>
</g>
</svg>
